HIERARCHY
ROOT Pelvis
{
	OFFSET 0.000000 0.000000 0.000000
	CHANNELS 6 Xposition Yposition Zposition Xrotation Yrotation Zrotation
	JOINT LeftUpLeg_virtual
	{
		OFFSET 0.000000 0.000000 0.000000
		CHANNELS 3 Xrotation Yrotation Zrotation
		JOINT LeftUpLeg
		{
			OFFSET 18.735201 -5.666702 -4.541200
			CHANNELS 3 Xrotation Yrotation Zrotation
			JOINT LeftLeg
			{
				OFFSET -0.021200 -31.938179 0.493100
				CHANNELS 3 Xrotation Yrotation Zrotation
				JOINT LeftFoot
				{
					OFFSET 0.021200 -31.938179 -4.336299
					CHANNELS 3 Xrotation Yrotation Zrotation
					JOINT LeftToeBase
					{
						OFFSET 0.943001 -26.722000 15.023500
						CHANNELS 3 Xrotation Yrotation Zrotation
						End Site
						{
							OFFSET 0 0 0
						}
					}
				}
			}
		}
	}
	JOINT RightUpLeg_virtual
	{
		OFFSET 0.000000 0.000000 0.000000
		CHANNELS 3 Xrotation Yrotation Zrotation
		JOINT RightUpLeg
		{
			OFFSET -18.735201 -5.666702 -4.541200
			CHANNELS 3 Xrotation Yrotation Zrotation
			JOINT RightLeg
			{
				OFFSET 0.018946 -31.938133 0.493100
				CHANNELS 3 Xrotation Yrotation Zrotation
				JOINT RightFoot
				{
					OFFSET -0.018946 -31.938126 -4.336299
					CHANNELS 3 Xrotation Yrotation Zrotation
					JOINT RightToeBase
					{
						OFFSET -0.943001 -26.722004 15.023500
						CHANNELS 3 Xrotation Yrotation Zrotation
						End Site
						{
							OFFSET 0 0 0
						}
					}
				}
			}
		}
	}
	JOINT Hips_virtual
	{
		OFFSET 0.000000 0.000000 0.000000
		CHANNELS 3 Xrotation Yrotation Zrotation
		JOINT Hips
		{
			OFFSET -0.000000 -0.000000 -0.000000
			CHANNELS 3 Xrotation Yrotation Zrotation
			JOINT Spine
			{
				OFFSET 0.000000 10.199997 -0.299500
				CHANNELS 3 Xrotation Yrotation Zrotation
				JOINT Spine1
				{
					OFFSET 0.000000 11.900002 -1.516600
					CHANNELS 3 Xrotation Yrotation Zrotation
					JOINT Spine2
					{
						OFFSET 0.000000 13.600006 -2.842500
						CHANNELS 3 Xrotation Yrotation Zrotation
						JOINT Neck_virtual
						{
							OFFSET 0.000000 0.000000 0.000000
							CHANNELS 3 Xrotation Yrotation Zrotation
							JOINT Neck
							{
								OFFSET 0.000000 9.624100 -2.890100
								CHANNELS 3 Xrotation Yrotation Zrotation
								JOINT Head
								{
									OFFSET 0.000000 14.068802 -1.351900
									CHANNELS 3 Xrotation Yrotation Zrotation
									End Site
									{
										OFFSET 0 0 0
									}
								}
							}
						}
						JOINT LeftShoulder_virtual
						{
							OFFSET 0.000000 0.000000 0.000000
							CHANNELS 3 Xrotation Yrotation Zrotation
							JOINT LeftShoulder
							{
								OFFSET 15.263000 10.923401 -0.547700
								CHANNELS 3 Xrotation Yrotation Zrotation
								JOINT LeftArm
								{
									OFFSET 25.438599 -2.830597 -13.032500
									CHANNELS 3 Xrotation Yrotation Zrotation
									JOINT LeftForeArm
									{
										OFFSET 29.960503 0.000000 0.000000
										CHANNELS 3 Xrotation Yrotation Zrotation
										JOINT LeftHand
										{
											OFFSET 27.849251 0.000000 0.000000
											CHANNELS 3 Xrotation Yrotation Zrotation
											End Site
											{
												OFFSET 0 0 0
											}
										}
									}
								}
							}
						}
						JOINT RightShoulder_virtual
						{
							OFFSET 0.000000 0.000000 0.000000
							CHANNELS 3 Xrotation Yrotation Zrotation
							JOINT RightShoulder
							{
								OFFSET -15.263000 10.923401 -0.547700
								CHANNELS 3 Xrotation Yrotation Zrotation
								JOINT RightArm
								{
									OFFSET -25.438599 -2.830597 -13.032500
									CHANNELS 3 Xrotation Yrotation Zrotation
									JOINT RightForeArm
									{
										OFFSET -29.960503 0.000000 0.000000
										CHANNELS 3 Xrotation Yrotation Zrotation
										JOINT RightHand
										{
											OFFSET -27.849251 0.000000 0.000000
											CHANNELS 3 Xrotation Yrotation Zrotation
											End Site
											{
												OFFSET 0 0 0
											}
										}
									}
								}
							}
						}
					}
				}
			}
		}
	}
}
MOTION
Frames: 11
Frame Time: 0.03333333
8.186440 90.955841 -11.551628 0.000000 0.000000 0.000000 19.200563 5.700616 -4.899891 -17.543921 16.229303 12.678802 51.665217 -0.983263 0.125130 0.056674 -1.454906 -6.365573 0.000000 0.000000 0.000000 -3.041817 14.806452 5.922628 -34.465698 -1.153205 -8.574403 45.596871 -0.650545 -3.861518 -6.618579 -1.499916 4.037712 0.000000 0.000000 0.000000 2.631706 0.255526 0.155560 8.167943 18.018444 -8.051702 6.283729 -4.241302 1.845739 2.791873 -2.347436 1.213980 0.000000 0.000000 0.000000 2.559586 -2.856783 1.827589 -0.675295 -0.296222 1.420133 0.000000 0.000000 0.000000 3.790901 -1.816244 2.982877 -0.065594 -2.044072 7.279353 -49.637840 -27.194649 -55.531163 -65.916127 -84.321212 -62.981325 0.000000 0.000000 0.000000 1.443956 -4.304408 1.659254 -0.941414 -11.081019 7.390047 -38.282534 17.956379 44.871157 -159.093861 72.087169 155.502288 0.000000 0.000000 0.000000 
8.180477 91.298325 -12.563976 0.000000 0.000000 0.000000 17.546765 4.126503 -4.490996 -20.946677 15.562217 13.488644 56.945784 -1.059921 0.378006 4.232059 -1.886771 -6.081415 0.000000 0.000000 0.000000 -2.007293 14.839906 5.913769 -32.930726 -1.290870 -8.364061 46.141032 -0.927646 -4.138789 -6.093589 -1.587643 3.351563 0.000000 0.000000 0.000000 2.859256 0.321139 0.040244 9.277754 17.695468 -8.283684 6.832645 -4.007882 1.711558 3.132087 -2.210381 1.136083 0.000000 0.000000 0.000000 3.000783 -2.708335 1.496225 -0.445486 -0.196066 1.212215 0.000000 0.000000 0.000000 3.796424 -1.796115 3.369440 0.062323 -2.399095 9.303588 -52.667917 -26.636988 -54.156894 -71.369282 -83.942752 -67.353745 0.000000 0.000000 0.000000 1.417241 -4.296438 1.093170 -1.108031 -10.869225 4.607079 -42.996020 17.855667 44.505595 -160.253040 69.529919 155.471143 0.000000 0.000000 0.000000 
8.153635 91.419739 -13.422749 0.000000 0.000000 0.000000 15.442954 2.626676 -4.233708 -24.830934 14.820821 14.168796 61.600110 -0.783403 0.719055 7.848549 -1.958322 -5.363510 0.000000 0.000000 0.000000 -0.873165 14.754773 5.940912 -31.322947 -1.489714 -8.152998 46.793421 -1.255173 -4.420406 -5.624215 -1.728679 2.648138 0.000000 0.000000 0.000000 3.145292 0.218516 -0.041657 10.360765 16.799404 -8.270903 7.361037 -3.857668 1.523564 3.468116 -2.114161 1.030521 0.000000 0.000000 0.000000 3.482161 -2.597482 1.185389 -0.198373 -0.129053 1.014770 0.000000 0.000000 0.000000 3.810709 -1.754697 3.784813 0.157375 -2.705140 11.406183 -55.661616 -26.103805 -52.322288 -76.992051 -83.631691 -71.717574 0.000000 0.000000 0.000000 1.436812 -4.354628 0.564490 -1.255331 -10.920453 1.941558 -46.632587 17.359696 45.175332 -161.115597 66.553193 155.642840 0.000000 0.000000 0.000000 
7.956044 91.370201 -13.884033 0.000000 0.000000 0.000000 13.544604 1.608104 -3.812619 -28.375437 14.139362 15.092459 65.996245 0.121932 1.240998 11.339238 -1.430677 -3.800012 0.000000 0.000000 0.000000 0.308728 14.584370 5.973029 -29.686570 -1.720381 -7.959776 47.143226 -1.520799 -4.657465 -5.501219 -1.855916 2.085394 0.000000 0.000000 0.000000 3.351679 0.173232 -0.132974 11.006764 15.672868 -8.235355 7.809608 -3.736782 1.243930 3.766888 -2.035977 0.874501 0.000000 0.000000 0.000000 3.857968 -2.551675 0.895553 -0.002676 -0.116593 0.835844 0.000000 0.000000 0.000000 3.878067 -1.706688 4.307946 0.281171 -3.052028 13.894536 -58.148693 -26.049489 -49.018089 -78.243403 -83.627661 -71.335370 0.000000 0.000000 0.000000 1.407879 -4.438864 -0.005496 -1.511253 -11.136775 -0.866496 -49.353533 16.582484 45.375890 -161.641262 64.134985 155.532669 0.000000 0.000000 0.000000 
7.666590 91.391335 -14.265102 0.000000 0.000000 0.000000 11.930257 0.980868 -3.258590 -31.376875 13.514302 16.123141 69.756968 1.366328 1.769981 14.364585 -0.488619 -1.870170 0.000000 0.000000 0.000000 1.198885 14.113750 5.986546 -28.480658 -1.980439 -7.851720 46.672807 -1.625335 -4.872839 -6.056976 -1.883317 1.682103 0.000000 0.000000 0.000000 3.444886 0.301381 -0.237782 11.244972 14.603363 -8.345698 8.168121 -3.602337 0.861360 4.014790 -1.956662 0.666800 0.000000 0.000000 0.000000 3.941429 -2.577934 0.658091 0.047888 -0.164772 0.693892 0.000000 0.000000 0.000000 4.003666 -1.591356 4.763127 0.399679 -3.199266 16.017811 -59.956849 -25.811410 -45.357258 -72.412341 -83.461838 -63.894145 0.000000 0.000000 0.000000 1.227185 -4.516859 -0.656296 -2.016647 -11.428523 -3.932825 -51.380262 15.639677 44.694022 -162.363036 62.125365 155.466867 0.000000 0.000000 0.000000 
7.372153 91.516121 -14.476410 0.000000 0.000000 0.000000 10.419244 0.336619 -2.726714 -34.019256 12.878990 17.015992 72.669238 2.552791 2.203500 16.686968 0.498648 -0.090881 0.000000 0.000000 0.000000 1.701498 13.458656 5.927779 -27.845413 -2.212084 -7.894760 45.557143 -1.579470 -5.094185 -7.134119 -1.796678 1.384438 0.000000 0.000000 0.000000 3.419219 0.655907 -0.366021 11.063219 13.851331 -8.705591 8.399166 -3.481651 0.328629 4.182727 -1.889419 0.379118 0.000000 0.000000 0.000000 3.704109 -2.637684 0.475822 -0.055039 -0.244560 0.588897 0.000000 0.000000 0.000000 4.128942 -1.436985 5.079494 0.469641 -3.225059 17.449970 -60.855230 -25.329415 -42.066647 -62.465468 -82.980740 -52.669136 0.000000 0.000000 0.000000 1.187546 -4.555797 -1.272785 -2.392078 -11.659536 -6.743343 -52.272804 15.208499 43.220030 -163.210048 61.228452 155.558706 0.000000 0.000000 0.000000 
6.952995 91.571869 -14.525517 0.000000 0.000000 0.000000 9.031848 -0.216003 -1.964177 -36.250044 12.177466 18.021410 74.649535 3.695436 2.718730 18.329465 1.453863 1.801770 0.000000 0.000000 0.000000 1.910530 12.524573 5.879216 -27.662425 -2.479707 -8.005285 44.067616 -1.497671 -5.254614 -8.520932 -1.731934 1.218312 0.000000 0.000000 0.000000 3.333978 1.097581 -0.453391 10.719093 13.400326 -8.939069 8.673148 -3.347636 -0.367050 4.354231 -1.816197 0.003106 0.000000 0.000000 0.000000 3.408180 -2.616189 0.421610 -0.192216 -0.287713 0.561464 0.000000 0.000000 0.000000 4.294951 -1.292259 5.237768 0.547586 -3.316505 18.109900 -60.743584 -25.090852 -39.537523 -52.427566 -82.360894 -41.856635 0.000000 0.000000 0.000000 1.222616 -4.457262 -1.671781 -2.609787 -11.476758 -8.441095 -52.439085 14.987749 41.646529 -163.426578 61.711449 155.189275 0.000000 0.000000 0.000000 
6.702151 91.524086 -14.331322 0.000000 0.000000 0.000000 7.946273 -0.541501 -1.485289 -37.884758 11.675861 18.648022 75.740876 4.411186 3.128226 19.295395 2.031006 3.142817 0.000000 0.000000 0.000000 2.117541 11.176802 5.791387 -27.555244 -2.847439 -8.214453 42.465301 -1.546363 -5.355057 -9.978751 -1.834455 1.054610 0.000000 0.000000 0.000000 3.231151 1.440724 -0.467485 10.257842 12.873980 -8.802248 8.845365 -3.147139 -1.071178 4.442119 -1.710031 -0.373257 0.000000 0.000000 0.000000 3.121060 -2.533429 0.481087 -0.336887 -0.305812 0.600029 0.000000 0.000000 0.000000 4.532278 -1.141709 5.176763 0.656956 -3.383431 17.725423 -59.635304 -24.686614 -38.226195 -42.904667 -81.296197 -32.227882 0.000000 0.000000 0.000000 1.264195 -4.243841 -1.829461 -2.723992 -10.977754 -8.948920 -52.066057 14.871005 39.886590 -162.668086 63.863983 153.967285 0.000000 0.000000 0.000000 
6.642385 91.910507 -14.007980 0.000000 0.000000 0.000000 6.945462 -0.163056 -1.395013 -39.175923 11.472191 18.864206 75.507618 4.599467 3.435042 19.304346 2.115086 3.814411 0.000000 0.000000 0.000000 2.649419 9.420141 5.818548 -26.965317 -3.396068 -8.279986 40.837930 -1.730658 -5.279559 -11.303701 -2.156633 1.047732 0.000000 0.000000 0.000000 3.304895 1.348369 -0.430755 10.404379 11.476991 -8.400139 8.880722 -2.944492 -1.679317 4.434364 -1.599518 -0.692419 0.000000 0.000000 0.000000 2.970376 -2.363349 0.535519 -0.416512 -0.280076 0.640369 0.000000 0.000000 0.000000 4.842817 -0.965879 4.913072 0.794621 -3.315097 16.384176 -57.591008 -24.208320 -37.973543 -35.195309 -80.099049 -24.993095 0.000000 0.000000 0.000000 1.370599 -3.919965 -1.692469 -2.648254 -10.198156 -8.036524 -50.852097 14.608958 38.707177 -160.236334 67.376381 151.516081 0.000000 0.000000 0.000000 
6.508644 92.648743 -13.657654 0.000000 0.000000 0.000000 6.076779 0.823672 -1.677313 -40.134861 11.565881 18.695473 74.151798 4.210586 3.614325 18.504840 1.649360 3.737529 0.000000 0.000000 0.000000 3.606817 7.754541 6.114798 -25.666977 -4.043740 -7.979693 39.402822 -1.926780 -4.974531 -12.328530 -2.596172 1.377553 0.000000 0.000000 0.000000 3.512312 1.186272 -0.431682 10.946316 10.112527 -8.485751 8.955928 -2.649367 -2.136677 4.438945 -1.442127 -0.925172 0.000000 0.000000 0.000000 2.929463 -2.089126 0.545623 -0.459425 -0.198293 0.661365 0.000000 0.000000 0.000000 5.090685 -0.727280 4.442656 0.808407 -2.918246 14.093060 -54.531957 -23.437376 -38.683719 -28.598554 -78.581852 -19.400833 0.000000 0.000000 0.000000 1.653907 -3.510170 -1.314243 -2.339337 -9.235146 -5.962579 -48.570209 14.328236 38.207201 -156.001644 71.527913 147.755952 0.000000 0.000000 0.000000 
6.419322 93.505463 -13.402081 0.000000 0.000000 0.000000 5.265082 2.036734 -2.021943 -40.852181 11.748052 18.392228 71.802985 3.428587 3.783235 16.924828 0.776277 3.278526 0.000000 0.000000 0.000000 4.946062 6.689626 6.754089 -23.657829 -4.655651 -7.183552 38.080787 -1.997000 -4.489287 -13.152299 -3.002032 2.069847 0.000000 0.000000 0.000000 3.759664 0.972771 -0.431911 11.582108 8.914381 -8.674473 8.997641 -2.295304 -2.428269 4.409686 -1.253037 -1.068575 0.000000 0.000000 0.000000 2.874451 -1.700284 0.608438 -0.529270 -0.052265 0.716285 0.000000 0.000000 0.000000 5.309438 -0.399658 3.864480 0.754972 -2.070081 11.274522 -50.600528 -22.396745 -40.104774 -23.321806 -76.991012 -15.463446 0.000000 0.000000 0.000000 2.225969 -3.078660 -0.863002 -1.762111 -8.289559 -3.473732 -44.724553 14.143002 37.918799 -149.917407 75.898087 142.561348 0.000000 0.000000 0.000000 
